<svg xmlns="http://www.w3.org/2000/svg" xmlns:xlink="http://www.w3.org/1999/xlink" version="1.1" x="0px" y="0px" width="40px" height="40px" viewBox="0 0 67 67" enable-background="new 0 0 67 67" xml:space="preserve"><style>.style0{opacity:	0.46;fill:	#3A589B;}.style1{fill:	#FFFFFF;}</style><image display="none" overflow="visible" width="162" height="43" xlink:href="project2/Desktop_University_2.jpg" transform="matrix(1.9121 0 0 1.9121 -135.7749 148.3604)"></image><rect x="5.3" y="171.2" display="none" width="152.7" height="44" class="style0"/><path d="M-52.106 220.701h6.76v-16.365h4.511l0.598-5.64h-5.109l0.007-2.822c0-1.471 0.141-2.26 2.25-2.26h2.82 v-5.64h-4.512c-5.419 0-7.326 2.736-7.326 7.338v3.384h-3.379v5.641h3.379V220.701z M-47.861 226.1 c-12.042 0-21.805-9.763-21.805-21.805s9.762-21.805 21.805-21.805c12.041 0 21.8 9.8 21.8 21.8 S-35.82 226.143-47.861 226.143z" class="style1"/><g><path d="M79.221 188.179c0.527-0.733 0.55-1.572 0.621-2.514c-0.043-0.361-0.084-0.85-0.178-1.324 c-0.301-1.628-0.897-3.118-2.12-4.299c-0.974-0.929-2.112-1.24-3.397-0.817c-1.271 0.413-2.047 1.326-2.248 2.7 c-0.08 0.556-0.123 1.146-0.071 1.717c0.156 1.8 0.7 3.4 2 4.802C75.627 190.4 78.2 189.5 79.2 188.179z" class="style1"/><path d="M78.941 196.296c-0.758-0.695-1.597-0.933-2.628-0.818c-1.423 0.153-2.83 0.312-4.111 1 c-1.782 0.922-2.547 2.367-2.131 4.304c0.277 1.3 1.2 2.1 2.3 2.724c1.241 0.7 2.6 0.8 3.8 0.8 c1.201 0 2.26-0.103 3.25-0.526c2.597-1.097 3.145-4.151 1.315-5.951C80.204 197.3 79.5 196.8 78.9 196.296z" class="style1"/><path d="M79.272 169.934c-12.118 0-21.942 9.823-21.942 21.942c0 12.1 9.8 21.9 21.9 21.9 c12.117 0 21.941-9.823 21.941-21.94C101.214 179.8 91.4 169.9 79.3 169.934z M83.135 202.3 c-1.088 1.552-2.672 2.454-4.453 2.97c-2.816 0.818-5.632 0.859-8.415-0.188c-1.222-0.454-2.259-1.198-2.939-2.349 c-1.306-2.182-0.094-4.771 1.199-5.84c1.521-1.264 3.322-1.821 5.228-2.13c0.901-0.154 1.821-0.228 2.848-0.343 c-1.026-1.169-1.48-2.422-0.776-3.818c-0.828-0.043-1.646-0.012-2.437-0.135c-4.002-0.673-5.992-4.919-4.022-8.581 c1.033-1.926 2.69-3.118 4.813-3.573c1.2-0.26 2.454-0.374 3.694-0.403c2.196-0.062 4.38-0.023 6.575-0.023 c0.133 0 0.3 0 0.4 0c0.009 0 0 0.1 0 0.084c-0.703 0.385-1.396 0.776-2.111 1.1 c-0.175 0.094-0.422 0.04-0.643 0.04c-0.515 0-1.032 0-1.591 0.092c0.166 0.1 0.3 0.3 0.5 0.4 c2.132 1.8 2.7 5.2 1.2 7.432c-0.562 0.858-1.355 1.488-2.132 2.143c-0.623 0.516-1.255 1.086-1.129 2 c0.042 0.3 0.2 0.7 0.4 0.94c0.745 0.7 1.6 1.3 2.3 1.998c0.744 0.6 1.5 1.3 2 2.2 C84.717 198.5 84.4 200.4 83.1 202.301z M93.324 190.768c-1.299 0-2.598 0-3.955 0c0 1.3 0 2.6 0 4 c-0.797 0-1.535 0-2.333 0c0-1.283 0-2.57 0-3.926c-1.358 0-2.659 0-4 0c0-0.824 0-1.55 0-2.363c1.329 0 2.6 0 4 0 c0-1.356 0-2.653 0-3.982c0.783 0 1.5 0 2.3 0l-0.016 3.967c1.36 0 2.7 0 4 0 C93.324 189.2 93.3 190 93.3 190.768z" class="style1"/></g><path d="M33.502 0C15.001 0 0 15 0 33.505c0 18.5 15 33.5 33.5 33.5 c18.506 0 33.505-14.999 33.505-33.502C67.007 15 52 0 33.5 0z M55.382 20.512c-0.187 0.313-1.149 1.413-2.173 2.4 c-1.737 1.724-1.828 1.912-1.828 3.356c0 2.226-1.059 6.87-2.112 9.409c-1.958 4.77-6.144 9.696-10.335 12.2 c-5.895 3.483-13.747 4.364-20.356 2.323c-2.2-0.688-5.99-2.447-5.99-2.759c0-0.093 1.148-0.222 2.548-0.255 c2.915-0.06 5.836-0.872 8.314-2.317l1.677-1.005l-1.924-0.656c-2.731-0.945-5.182-3.109-5.803-5.148 c-0.184-0.659-0.122-0.692 1.612-0.692l1.803-0.025l-1.523-0.727c-1.801-0.911-3.446-2.446-4.25-4.015 c-0.592-1.131-1.333-3.985-1.117-4.204c0.059-0.089 0.7 0.1 1.5 0.342c2.14 0.8 2.4 0.6 1.181-0.718 c-2.329-2.382-3.043-5.927-1.924-9.285l0.525-1.507l2.049 2.039c4.188 4.1 9.1 6.6 14.8 7.28l1.554 0.187l-0.095-1.538 c-0.278-3.985 2.171-7.62 6.051-9.033c1.427-0.505 3.848-0.563 5.433-0.125c0.619 0.2 1.8 0.8 2.6 1.377l1.521 1 l1.676-0.536c0.931-0.282 2.172-0.75 2.73-1.07c0.528-0.277 0.994-0.437 0.994-0.343c0 0.533-1.147 2.356-2.11 3.4 c-1.307 1.414-0.934 1.5 1.7 0.597C55.661 19.9 55.7 19.9 55.4 20.512z" class="style1"/></svg>
